<?xml version="1.0" encoding="UTF-8" standalone="no"?>
<svg
        xmlns:dc="http://purl.org/dc/elements/1.1/"
        xmlns:cc="http://creativecommons.org/ns#"
        xmlns:rdf="http://www.w3.org/1999/02/22-rdf-syntax-ns#"
        xmlns:svg="http://www.w3.org/2000/svg"
        xmlns="http://www.w3.org/2000/svg"
        xmlns:sodipodi="http://sodipodi.sourceforge.net/DTD/sodipodi-0.dtd"
        xmlns:inkscape="http://www.inkscape.org/namespaces/inkscape"
        version="1.1"
        id="svg2"
        xml:space="preserve"
        width="1066.6667"
        height="392.69333"
        viewBox="0 0 1066.6667 392.69333"
        sodipodi:docname="Pivoter-02.eps"><metadata
     id="metadata8"><rdf:RDF><cc:Work
         rdf:about=""><dc:format>image/svg+xml</dc:format><dc:type
        rdf:resource="http://purl.org/dc/dcmitype/StillImage"/></cc:Work></rdf:RDF></metadata>
    <defs
            id="defs6"/>
    <sodipodi:namedview
            pagecolor="#ffffff"
            bordercolor="#666666"
            borderopacity="1"
            objecttolerance="10"
            gridtolerance="10"
            guidetolerance="10"
            inkscape:pageopacity="0"
            inkscape:pageshadow="2"
            inkscape:window-width="640"
            inkscape:window-height="480"
            id="namedview4"/>
    <g
            id="g10"
            inkscape:groupmode="layer"
            inkscape:label="ink_ext_XXXXXX"
            transform="matrix(1.3333333,0,0,-1.3333333,0,392.69333)"><g
       id="g12"
       transform="scale(0.1)"><path
         d="m 2883.78,1611.74 h -151.91 v -340.25 h 151.91 c 53.14,0 97.58,5.58 133.28,16.72 35.67,11.13 62.88,29.37 81.62,54.67 18.73,25.32 28.11,58.48 28.11,99.5 0,49.09 -14.43,89.09 -43.29,119.99 -32.42,32.91 -99,49.37 -199.72,49.37 z m 54.67,-510.36 H 2731.87 V 786.211 c 0,-45.07 -10.63,-79.231 -31.9,-102.512 -21.26,-23.277 -48.11,-34.949 -80.5,-34.949 -33.93,0 -61.28,11.531 -82.03,34.559 -20.76,23.031 -31.14,56.82 -31.14,101.39 v 858.171 c 0,49.62 11.39,85.04 34.19,106.33 22.78,21.26 58.96,31.89 108.6,31.89 h 289.36 c 85.54,0 151.36,-6.59 197.45,-19.74 45.57,-12.68 84.93,-33.69 118.1,-63.06 33.16,-29.36 58.34,-65.29 75.57,-107.81 17.2,-42.55 25.8,-90.4 25.8,-143.55 0,-113.43 -34.92,-199.36 -104.79,-257.84 -69.87,-58.48 -173.92,-87.71 -312.13,-87.71"
         style="fill:#ab1e27;fill-opacity:1;fill-rule:nonzero;stroke:none"
         id="path14" /><path
            d="M 3736.62,1374.03 V 774.82 c 0,-41.531 -9.87,-72.922 -29.62,-94.179 -19.75,-21.262 -44.81,-31.891 -75.2,-31.891 -30.37,0 -55.04,10.91 -74.04,32.648 -18.98,21.762 -28.46,52.891 -28.46,93.422 v 593.13 c 0,41 9.48,71.88 28.46,92.64 19,20.76 43.67,31.16 74.04,31.16 30.39,0 55.45,-10.4 75.2,-31.16 19.75,-20.76 29.62,-49.62 29.62,-86.56 z m -102.54,214.15 c -28.84,0 -53.52,8.86 -74.04,26.59 -20.51,17.72 -30.74,42.77 -30.74,75.19 0,29.34 10.48,53.54 31.52,72.51 20.98,18.99 45.41,28.49 73.26,28.49 26.85,0 50.63,-8.61 71.41,-25.83 20.76,-17.22 31.13,-42.27 31.13,-75.17 0,-31.92 -10.15,-56.85 -30.37,-74.8 -20.26,-17.98 -44.32,-26.98 -72.17,-26.98"
            style="fill:#ab1e27;fill-opacity:1;fill-rule:nonzero;stroke:none"
            id="path16"/><path
            d="m 4097.37,1362.62 167.83,-470.831 180.75,491.351 c 14.17,39.49 28.1,67.46 41.76,83.93 13.68,16.43 34.44,24.68 62.29,24.68 26.32,0 48.72,-8.89 67.21,-26.59 18.48,-17.72 27.71,-38.23 27.71,-61.51 0,-9.11 -1.66,-19.75 -4.94,-31.91 -3.28,-12.15 -7.09,-23.54 -11.39,-34.16 -4.31,-10.64 -9.25,-22.79 -14.8,-36.47 L 4414.81,807.469 c -5.57,-14.16 -12.79,-32.137 -21.65,-53.91 -8.86,-21.778 -18.74,-40.387 -29.62,-55.821 -10.88,-15.449 -24.28,-27.476 -40.24,-36.078 -15.96,-8.601 -35.31,-12.91 -58.1,-12.91 -29.36,0 -52.78,6.73 -70.25,20.129 -17.47,13.41 -30.38,28.09 -38.73,44.051 -8.36,15.949 -22.41,47.449 -42.16,94.539 l -197.45,488.341 c -4.55,12.15 -9.24,24.29 -14.05,36.43 -4.81,12.17 -8.87,24.57 -12.15,37.22 -3.28,12.66 -4.94,23.56 -4.94,32.66 0,14.18 4.29,28.21 12.93,42.15 8.58,13.91 20.5,25.32 35.68,34.19 15.2,8.83 31.64,13.29 49.37,13.29 34.41,0 58.1,-9.88 71.01,-29.62 12.9,-19.75 27.21,-52.92 42.91,-99.51"
            style="fill:#ab1e27;fill-opacity:1;fill-rule:nonzero;stroke:none"
            id="path18"/><path
            d="m 5341.32,1070.25 c 0,84.53 -18.6,150.36 -55.82,197.45 -37.22,47.09 -87.2,70.63 -149.97,70.63 -40.53,0 -76.23,-10.52 -107.09,-31.53 -30.9,-21 -54.69,-52.02 -71.4,-93.03 -16.7,-41.01 -25.05,-88.85 -25.05,-143.52 0,-54.19 8.21,-101.531 24.68,-142.031 16.43,-40.508 40,-71.52 70.62,-93.039 30.63,-21.508 66.7,-32.25 108.24,-32.25 62.77,0 112.75,23.652 149.97,70.98 37.22,47.352 55.82,112.789 55.82,196.34 z m 208.1,0 c 0,-61.79 -9.64,-118.75 -28.86,-170.898 -19.26,-52.141 -47.09,-96.954 -83.55,-134.403 -36.46,-37.469 -79.99,-66.211 -130.62,-86.187 -50.62,-20 -107.58,-30.012 -170.86,-30.012 -62.8,0 -119.26,10.121 -169.38,30.379 -50.13,20.242 -93.53,49.23 -130.22,86.941 -36.72,37.731 -64.57,82.301 -83.56,133.668 -18.98,51.391 -28.47,108.222 -28.47,170.512 0,62.78 9.59,120.24 28.86,172.38 19.24,52.14 46.82,96.71 82.78,133.68 35.94,36.94 79.48,65.44 130.61,85.43 51.13,20 107.59,30.01 169.38,30.01 62.77,0 119.71,-10.15 170.86,-30.4 51.14,-20.25 94.95,-49.12 131.38,-86.56 36.46,-37.47 64.17,-82.04 83.17,-133.67 18.98,-51.64 28.48,-108.6 28.48,-170.87"
            style="fill:#ab1e27;fill-opacity:1;fill-rule:nonzero;stroke:none"
            id="path20"/><path
            d="m 5724.08,1473.52 h 22.77 v 124.53 c 0,33.43 0.9,59.63 2.67,78.62 1.77,18.99 6.71,35.31 14.81,48.97 8.1,14.17 19.74,25.69 34.95,34.55 15.17,8.87 32.13,13.3 50.87,13.3 26.31,0 50.12,-9.87 71.39,-29.62 14.16,-13.18 23.17,-29.23 26.95,-48.21 3.81,-18.99 5.7,-45.95 5.7,-80.89 v -141.25 h 75.94 c 29.37,0 51.76,-6.98 67.21,-20.9 15.45,-13.93 23.17,-31.77 23.17,-53.54 0,-27.85 -11,-47.34 -33.04,-58.48 -22.02,-11.13 -53.55,-16.69 -94.55,-16.69 h -38.73 V 942.66 c 0,-32.422 1.14,-57.328 3.42,-74.801 2.27,-17.468 8.35,-31.66 18.23,-42.55 9.87,-10.879 25.95,-16.321 48.21,-16.321 12.17,0 28.61,2.16 49.37,6.453 20.75,4.309 36.96,6.469 48.6,6.469 16.72,0 31.78,-6.73 45.19,-20.129 13.4,-13.41 20.13,-29.992 20.13,-49.73 0,-33.43 -18.23,-59.012 -54.69,-76.711 -36.43,-17.719 -88.85,-26.59 -157.2,-26.59 -64.8,0 -113.91,10.91 -147.32,32.648 -33.42,21.762 -55.33,51.891 -65.71,90.391 -10.37,38.461 -15.57,89.852 -15.57,154.16 v 397.961 h -27.31 c -29.9,0 -52.68,7.07 -68.36,21.26 -15.7,14.16 -23.55,32.14 -23.55,53.91 0,21.77 8.22,39.61 24.68,53.54 16.46,13.92 40.36,20.9 71.77,20.9"
            style="fill:#ab1e27;fill-opacity:1;fill-rule:nonzero;stroke:none"
            id="path22"/><path
            d="m 6436.43,1137.09 h 375.95 c -5.07,70.88 -24.2,123.88 -57.35,159.09 -33.16,35.19 -76.83,52.78 -131.01,52.78 -51.64,0 -94.04,-17.84 -127.2,-53.54 -33.18,-35.71 -53.29,-88.47 -60.39,-158.33 z M 6842,1019.37 h -405.57 c 0.51,-47.089 10.01,-88.632 28.5,-124.561 18.46,-35.95 43.03,-63.02 73.65,-81.258 30.64,-18.219 64.43,-27.34 101.4,-27.34 24.79,0 47.45,2.918 67.96,8.73 20.51,5.829 40.39,14.938 59.63,27.34 19.23,12.399 36.94,25.699 53.15,39.891 16.2,14.156 37.22,33.398 63.05,57.707 10.62,9.09 25.8,13.66 45.54,13.66 21.29,0 38.49,-5.828 51.66,-17.469 13.16,-11.64 19.75,-28.101 19.75,-49.359 0,-18.731 -7.34,-40.621 -22.04,-65.691 -14.67,-25.071 -36.83,-49.11 -66.45,-72.141 -29.61,-23.047 -66.83,-42.149 -111.63,-57.348 -44.81,-15.179 -96.33,-22.781 -154.54,-22.781 -133.17,0 -236.72,37.98 -310.62,113.922 -73.94,75.93 -110.88,178.957 -110.88,309.098 0,61.26 9.12,118.08 27.34,170.49 18.23,52.4 44.8,97.33 79.75,134.8 34.92,37.47 77.95,66.2 129.1,86.19 51.13,20 107.84,30.01 170.11,30.01 81,0 150.51,-17.1 208.47,-51.27 57.96,-34.16 101.4,-78.36 130.24,-132.52 28.86,-54.19 43.3,-109.35 43.3,-165.57 0,-52.13 -14.95,-85.93 -44.82,-101.38 -29.87,-15.43 -71.89,-23.15 -126.05,-23.15"
            style="fill:#ab1e27;fill-opacity:1;fill-rule:nonzero;stroke:none"
            id="path24"/><path
            d="M 7393.36,947.969 V 774.82 c 0,-42.039 -9.88,-73.531 -29.62,-94.55 -19.75,-21 -44.82,-31.52 -75.19,-31.52 -29.87,0 -54.44,10.629 -73.66,31.891 -19.26,21.257 -28.86,52.648 -28.86,94.179 v 577.17 c 0,93.14 33.67,139.76 101,139.76 34.42,0 59.24,-10.91 74.41,-32.67 15.21,-21.77 23.57,-53.92 25.08,-96.46 24.8,42.54 50.24,74.69 76.32,96.46 26.08,21.76 60.89,32.67 104.42,32.67 43.56,0 85.82,-10.91 126.83,-32.67 41.01,-21.77 61.51,-50.63 61.51,-86.58 0,-25.3 -8.73,-46.2 -26.2,-62.64 -17.45,-16.46 -36.32,-24.69 -56.57,-24.69 -7.6,0 -25.95,4.67 -55.06,14.06 -29.11,9.34 -54.8,14.03 -77.08,14.03 -30.37,0 -55.19,-7.97 -74.43,-23.91 -19.24,-15.95 -34.16,-39.63 -44.8,-71.01 -10.65,-31.41 -17.98,-68.74 -22.04,-112.02 -4.04,-43.28 -6.06,-96.07 -6.06,-158.351"
            style="fill:#ab1e27;fill-opacity:1;fill-rule:nonzero;stroke:none"
            id="path26"/><path
            d="m 1463.05,2563.43 c 0,-87.65 -71.07,-158.71 -158.73,-158.71 -87.65,0 -158.71,71.06 -158.71,158.71 0,87.66 71.06,158.73 158.71,158.73 87.66,0 158.73,-71.07 158.73,-158.73"
            style="fill:#efa20f;fill-opacity:1;fill-rule:nonzero;stroke:none"
            id="path28"/><path
            d="m 537.773,1791.39 c 46.422,-74.36 23.77,-172.27 -50.585,-218.68 -74.368,-46.42 -172.266,-23.77 -218.684,50.59 -46.414,74.36 -23.77,172.26 50.586,218.68 74.363,46.42 172.265,23.77 218.683,-50.59"
            style="fill:#efa20f;fill-opacity:1;fill-rule:nonzero;stroke:none"
            id="path30"/><path
            d="m 650.73,583.789 c 0,0 -329.953,506.161 -146.738,961.991 0,0 456.106,-18.81 787.368,-541.98 0,0 -191.16,141.43 -312.751,161.33 0,0 236.871,-330.97 351.071,-942.071 0,0 -439.739,289.39 -690.817,737.421 0,0 -42,-214.179 11.867,-376.691"
            style="fill:#efa20f;fill-opacity:1;fill-rule:nonzero;stroke:none"
            id="path32"/><path
            d="m 2291.38,1693.41 c -41.17,-77.4 -137.27,-106.77 -214.66,-65.61 -77.4,41.15 -106.77,137.26 -65.62,214.65 41.16,77.4 137.27,106.77 214.66,65.61 77.39,-41.16 106.77,-137.26 65.62,-214.65"
            style="fill:#efa20f;fill-opacity:1;fill-rule:nonzero;stroke:none"
            id="path34"/><path
            d="m 1302.3,991.391 c 0,0 273.18,538.939 759.51,608.379 0,0 211.92,-404.32 -75.32,-952.899 0,0 26.82,236.27 -16.78,351.52 0,0 -168.06,-370.7 -640.03,-775.332 0,0 30.54,525.531 292.84,967.081 0,0 -206.47,-70.79 -320.22,-198.749"
            style="fill:#efa20f;fill-opacity:1;fill-rule:nonzero;stroke:none"
            id="path36"/><path
            d="m 1685.25,1496.29 c -3.97,619.21 -380.93,876.69 -380.93,876.69 -396.785,-289.66 -384.918,-893.75 -384.918,-893.75 40.352,166.38 189.398,325.82 189.398,325.82 L 995.859,1401.64 1178.53,1221.63 c 47.11,-51.76 103.73,-115.31 123.77,-143.37 0,0 52.26,68.82 102.57,137.2 v 0 c 45.28,61.03 173.63,203.54 173.63,203.54 l -73.13,379.76 c 92.62,-81.27 179.88,-302.47 179.88,-302.47"
            style="fill:#efa20f;fill-opacity:1;fill-rule:nonzero;stroke:none"
            id="path38"/></g></g></svg>
