<svg xmlns:dc="http://purl.org/dc/elements/1.1/" xmlns:cc="http://creativecommons.org/ns#" xmlns:rdf="http://www.w3.org/1999/02/22-rdf-syntax-ns#" xmlns:svg="http://www.w3.org/2000/svg" xmlns="http://www.w3.org/2000/svg" height="24" width="131" xml:space="preserve" version="1.1"><rect id="backgroundrect" width="100%" height="100%" x="0" y="0" fill="none" stroke="none" class="" style=""/><metadata id="metadata8"><rdf:RDF><cc:Work rdf:about=""><dc:format>image/svg+xml</dc:format><dc:type rdf:resource="http://purl.org/dc/dcmitype/StillImage"/></cc:Work></rdf:RDF></metadata>
    <defs id="defs6"/>
    <g class="currentLayer" style=""><title>Layer 1</title><path id="path14" style="fill:#6B7587;fill-opacity:1;fill-rule:nonzero;stroke:none" d="m4.447395819841897,19.898397198110853 h6.334893269358265 c2.1291733118311544,0 3.505706631263099,-0.48999999505156894 4.129706624961424,-1.468133318506891 c0.6234666603703771,-0.9786666567832695 0.934933323891592,-3.1390666349657375 0.934933323891592,-6.4807999345514435 c0,-3.4571999650862932 -0.2802666638362987,-5.6535999429052035 -0.8406666581769092,-6.593733266744282 c-0.5614666609965051,-0.9379999905272891 -1.8770933143768702,-1.4077333191168608 -3.9484532934585386,-1.4077333191168608 H4.447395819841897 zM-1.911234434603948e-9,23.641730493640868 V0.20519739698931266 H11.520835748408365 c3.2728933002809106,0 5.565559943794305,0.7161333261012182 6.876626597220721,2.146399978323852 c1.3093333201105868,1.4317333188744887 1.9655999801497221,3.9374666269028245 1.9655999801497221,7.520266590720704 c0,5.848533274269936 -0.5266666613479446,9.606266569654526 -1.5797333173798607,11.271333219505951 C17.73026235236703,22.808397168723232 15.355195709685779,23.641730493640868 11.657809080358428,23.641730493640868 H-1.911234434603948e-9 " stroke-width="0" class=""/><path id="path16" style="fill:#6B7587;fill-opacity:1;fill-rule:nonzero;stroke:none" d="m36.51452882933441,3.811464027236866 c-2.9869333031687746,0 -4.732266618876267,0.38279999613416443 -5.236399947118439,1.1505333217142824 c-0.5030666615862772,0.7666666589242235 -0.7557333257013039,3.4223999654377333 -0.7557333257013039,7.96506658622874 c0,3.3655999660113474 0.29479999702286236,5.392266612211033 0.884933324396534,6.079199938607138 c0.5890666607177771,0.6859999930721967 2.3259999765101003,1.029733322934222 5.210933280708956,1.029733322934222 c2.7582666388113757,0 4.411999955443923,-0.3865333294297954 4.961466616561613,-1.1594666549573993 c0.5494666611176912,-0.7723999921996567 0.8233333250186223,-3.116133301864004 0.8233333250186223,-7.030133262337148 c0,-3.9255999603559975 -0.25986666404231507,-6.246399936918611 -0.7801333254548923,-6.961999929691883 c-0.5207999947405246,-0.7150666594453235 -2.223466644212235,-1.0729333224979523 -5.1083999484110905,-1.0729333224979523 m0.34333332986606535,-3.811466628175278 c4.258799956991064,0 6.99946659598018,0.7067999928621407 8.224933250271055,2.1198666452584747 c1.2239999876390208,1.4134666523922943 1.8359999814585317,4.575466620459766 1.8359999814585317,9.485866570870426 c0,5.367733279125458 -0.6151999937871943,8.750533244963107 -1.845333314697609,10.147466564189033 c-1.2307999875703488,1.3962666525659941 -4.209333290823953,2.094266645517005 -8.935999909756774,2.094266645517005 c-4.257733290335169,0 -7.010933262531046,-0.6895999930358407 -8.25826658326776,-2.069333312435469 c-1.2479999873966487,-1.3786666527437341 -1.8718666477629864,-4.415066622079618 -1.8718666477629864,-9.1077332413558 c0,-5.585999943587885 0.612399993815471,-9.093333241501224 1.837999981438334,-10.52346656039187 c1.2239999876390208,-1.4313333188785282 4.228133290634095,-2.1469333116517992 9.01253324231721,-2.1469333116517992 " stroke-width="0" class=""/><path id="path18" style="fill:#6B7587;fill-opacity:1;fill-rule:nonzero;stroke:none" d="M75.1926617720635,0.20519739698931266 V23.641730493640868 h-7.535866590563161 l-6.696933265702081,-12.86039987012489 c-0.3317333299832118,-0.6411999935246246 -0.8525333247237363,-1.7619999822058459 -1.5623999842215741,-3.365199966015387 l-0.7553333257053434,-1.6817333163497792 l-0.7374666592191096,-1.682799983005674 h-0.17293333158690752 l0.06933333263314716,1.5447999843993134 l0.05159999947889992,1.5281333179009606 l0.033733332992665836,3.073466635628221 V23.641730493640868 h-4.446799955092482 v-23.436533096651555 h7.536933257219057 l6.095333271777544,11.880799880017712 c0.5374666612388772,1.0541333226878105 1.1614666549372017,2.330133309801692 1.8707999811070921,3.8290666279975385 l0.8937333243076643,1.9053333140916786 l0.891733324327862,1.923866647237847 h0.15359999844881836 l-0.05093333281896582,-1.5114666514026078 l-0.05053333282300536,-1.5114666514026078 l-0.033866666324652656,-3.021333302821374 v-13.494799863718187 h4.4462666217645355 " stroke-width="0" class=""/><path id="path20" style="fill:#6B7587;fill-opacity:1;fill-rule:nonzero;stroke:none" d="M104.58226147526265,0.20519739698931266 V23.641730493640868 h-7.5374665905470035 l-6.6958665990461865,-12.86039987012489 c-0.3317333299832118,-0.6411999935246246 -0.8535999913796309,-1.7619999822058459 -1.5625333175535605,-3.365199966015387 l-0.7551999923733569,-1.6817333163497792 l-0.737999992547057,-1.682799983005674 h-0.17186666493101288 l0.06773333264930531,1.5447999843993134 l0.05306666613075497,1.5281333179009606 l0.033866666324652656,3.073466635628221 V23.641730493640868 H82.82972836160465 v-23.436533096651555 h7.53639992389111 l6.095333271777544,11.880799880017712 c0.5374666612388772,1.0541333226878105 1.1614666549372017,2.330133309801692 1.8707999811070921,3.8290666279975385 l0.893199990979717,1.9053333140916786 l0.8933333243117038,1.923866647237847 h0.15359999844881836 l-0.05213333280684722,-1.5114666514026078 l-0.05053333282300536,-1.5114666514026078 l-0.035333332976507696,-3.021333302821374 v-13.494799863718187 h4.4478666217483775 " stroke-width="0" class=""/><path id="path22" style="fill:#6B7587;fill-opacity:1;fill-rule:nonzero;stroke:none" d="m112.80106139226233,23.786530492178553 v-3.978133293158805 h7.864533253910677 c4.129199958299874,0 5.4385332784104605,0.3290666633434755 5.4385332784104605,-2.9046666373329053 c0,-2.4870666415501805 -0.6379999935569408,-3.090666635454521 -3.3577332994241247,-3.090666635454521 h-9.878666566903602 v-4.108933291837877 h9.878666566903602 c2.51813330790311,0 2.9546666368279637,-0.3061333302417421 2.9546666368279637,-3.10413330198519 c0,-2.2385333107267456 -1.1073333221505521,-2.4243999755163745 -5.035466615814299,-2.4243999755163745 l-7.868133253874321,-0.04906666617115032 v-3.9795999598106597 h7.868133253874321 c4.766666618528867,0 9.599999903051145,0.03013333302902166 9.599999903051145,6.092666605137807 c0,2.7671999720544926 -0.5697333275796882,5.129733281528982 -3.960933293332505,5.4411999450501956 v0.12493333207165172 c3.4573332984182805,0.2171999978065322 4.363599955932705,2.051599979281222 4.363599955932705,5.097999948516119 c0,6.436399934999833 -3.592799963716891,6.9337332633106765 -10.002666565651346,6.9337332633106765 l-7.864533253910677,-0.05093333281896582 " stroke-width="0" class=""/></g></svg>