<?xml version="1.0" encoding="UTF-8" standalone="no"?>
<svg
   xmlns:dc="http://purl.org/dc/elements/1.1/"
   xmlns:cc="http://creativecommons.org/ns#"
   xmlns:rdf="http://www.w3.org/1999/02/22-rdf-syntax-ns#"
   xmlns:svg="http://www.w3.org/2000/svg"
   xmlns="http://www.w3.org/2000/svg"
   viewBox="0 0 659.67999 800"
   height="800"
   width="659.67999"
   xml:space="preserve"
   id="svg2"
   version="1.1"><metadata
     id="metadata8"><rdf:RDF><cc:Work
         rdf:about=""><dc:format>image/svg+xml</dc:format><dc:type
           rdf:resource="http://purl.org/dc/dcmitype/StillImage" /></cc:Work></rdf:RDF></metadata><defs
     id="defs6" /><g
     transform="matrix(1.3333333,0,0,-1.3333333,0,800)"
     id="g10"><g
       transform="scale(0.1)"
       id="g12"><path
         id="path14"
         style="fill:#ffffff;fill-opacity:1;fill-rule:nonzero;stroke:none"
         d="m 2877.54,5369.68 c 0,-190.42 -154.37,-344.79 -344.79,-344.79 -190.43,0 -344.79,154.37 -344.79,344.79 0,190.42 154.36,344.79 344.79,344.79 190.42,0 344.79,-154.37 344.79,-344.79" /><path
         id="path16"
         style="fill:#ffffff;fill-opacity:1;fill-rule:nonzero;stroke:none"
         d="m 867.52,3692.51 c 100.839,-161.53 51.628,-374.22 -109.903,-475.06 -161.535,-100.83 -374.23,-51.62 -475.058,109.91 -100.84,161.53 -51.633,374.22 109.902,475.06 161.531,100.83 374.227,51.62 475.059,-109.91" /><path
         id="path18"
         style="fill:#ffffff;fill-opacity:1;fill-rule:nonzero;stroke:none"
         d="m 1112.9,1069.16 c 0,0 -716.767,1099.57 -318.771,2089.8 0,0 990.831,-40.86 1710.441,-1177.38 0,0 -415.25,307.25 -679.41,350.48 0,0 514.57,-718.99 762.66,-2046.529 0,0 -955.28,628.66 -1500.69,1601.939 0,0 -91.251,-465.28 25.77,-818.31" /><path
         id="path20"
         style="fill:#ffffff;fill-opacity:1;fill-rule:nonzero;stroke:none"
         d="m 4676.96,3479.65 c -89.41,-168.12 -298.18,-231.94 -466.31,-142.53 -168.12,89.41 -231.94,298.19 -142.53,466.31 89.41,168.13 298.19,231.94 466.31,142.53 168.13,-89.41 231.95,-298.18 142.53,-466.31" /><path
         id="path22"
         style="fill:#ffffff;fill-opacity:1;fill-rule:nonzero;stroke:none"
         d="m 2528.36,1954.64 c 0,0 593.42,1170.76 1649.91,1321.6 0,0 460.37,-878.33 -163.61,-2070.04 0,0 58.25,513.27 -36.48,763.61 0,0 -365.08,-805.26 -1390.36,-1684.279 0,0 66.35,1141.659 636.15,2100.859 0,0 -448.5,-153.79 -695.61,-431.75" /><path
         id="path24"
         style="fill:#ffffff;fill-opacity:1;fill-rule:nonzero;stroke:none"
         d="m 3360.25,3051.44 c -8.63,1345.16 -827.51,1904.49 -827.51,1904.49 -861.97,-629.24 -836.19,-1941.55 -836.19,-1941.55 87.67,361.44 411.45,707.81 411.45,707.81 l -245.35,-876.36 396.83,-391.03 c 102.34,-112.46 225.33,-250.51 268.88,-311.47 0,0 113.5,149.51 222.8,298.04 v 0 c 98.37,132.6 377.21,442.18 377.21,442.18 l -158.88,824.97 c 201.18,-176.55 390.76,-657.08 390.76,-657.08" /></g></g></svg>