<svg xmlns="http://www.w3.org/2000/svg" xmlns:xlink="http://www.w3.org/1999/xlink" xml:space="preserve" width="1097" height="321" version="1.1" style="shape-rendering: geometricprecision; text-rendering: geometricprecision; fill-rule: evenodd; clip-rule: evenodd;"><rect id="backgroundrect" width="100%" height="100%" x="0" y="0" fill="none" stroke="none" class="" style=""/>
 <defs>
  <style type="text/css">
   <![CDATA[
    .fil2 {fill:#D95C34;fill-rule:nonzero}
    .fil1 {fill:#F58437;fill-rule:nonzero}
    .fil0 {fill:#F7BC36;fill-rule:nonzero}
   ]]>
  </style>
 </defs>
 
<g class="currentLayer" style=""><title>Layer 1</title>
  <metadata id="CorelCorpID_0Corel-Layer"/>
  
  
  
  
  
  
  
  
  
  
  
  
  
  
  
  
  
  
  
 <g class=""><path class="fil1" d="M136,151 l139,0 l1,62 c0,46 -9,75 -26,88 c-17,13 -55,20 -115,20 c-54,0 -91,-9 -108,-26 c-18,-18 -27,-53 -27,-107 c0,-69 4,-112 11,-131 c9,-22 22,-37 40,-45 c18,-8 48,-12 91,-12 c56,0 92,6 108,18 c16,12 24,38 24,79 l-60,0 c-1,-21 -6,-33 -13,-38 c-8,-5 -28,-7 -60,-7 c-35,0 -57,4 -66,13 c-9,9 -14,29 -14,61 l0,32 l0,40 c0,31 5,51 14,60 c9,9 31,13 64,13 c33,0 53,-4 62,-11 c9,-7 13,-24 13,-51 l0,-13 l-79,0 l0,-44 z" id="svg_16"/><polygon class="fil1" points="365,318 425,318 425,3 365,3 " id="svg_17"/><path class="fil1" d="M730,3 l63,0 l-101,315 l-92,0 l-101,-315 l62,0 l59,178 c6,17 14,46 25,86 l2,0 l6,-21 c7,-27 14,-48 19,-64 l58,-179 z" id="svg_18"/><path class="fil2" d="M859,318 l0,-53 l105,0 c55,0 73,4 73,-39 c0,-33 -9,-41 -45,-41 l-132,0 l0,-55 l132,0 c34,0 39,-4 39,-41 c0,-30 -15,-32 -67,-32 l-105,-1 l0,-53 l105,0 c64,0 128,0 128,81 c0,37 -8,68 -53,73 l0,2 c46,3 58,27 58,68 c0,86 -48,93 -133,93 l-105,-1 z" id="svg_19"/></g></g></svg>